<svg xmlns="http://www.w3.org/2000/svg">
    <symbol id="icon_accessories"  viewBox="0 0 31.78 26.55">
    <path d="M15.82,2.89a5.71,5.71,0,0,1,5,3h-10a5.71,5.71,0,0,1,5-3m13.86,3H24.29a9.06,9.06,0,0,0-17,0H2.1L0,24.94a1.6,1.6,0,0,0,1.75,1.61H30a1.6,1.6,0,0,0,1.75-1.61Z"/>
    </symbol>
    <symbol id="icon_arrow_left"  viewBox="0 0 14.91 25.21">
    <path d="M14.91,22.92a.92.92,0,0,0-.29-.7L5,12.61,14.64,3a.88.88,0,0,0,.27-.68.88.88,0,0,0-.27-.67L13.29.27a1,1,0,0,0-1.35,0L.27,11.93a1,1,0,0,0,0,1.35L11.94,24.93a1,1,0,0,0,1.35,0l1.34-1.34a.86.86,0,0,0,.27-.67"/>
    </symbol>
    <symbol id="icon_arrow_right"  viewBox="0 0 14.91 25.21">
        <path d="M0,22.92a.92.92,0,0,1,.29-.7l9.63-9.61L.27,3A.88.88,0,0,1,0,2.29a.88.88,0,0,1,.27-.67L1.61.27A.87.87,0,0,1,2.29,0,.87.87,0,0,1,3,.27L14.64,11.93a1,1,0,0,1,0,1.35L3,24.93a1,1,0,0,1-1.35,0L.27,23.59A.86.86,0,0,1,0,22.92"/>
    </symbol>
    <symbol id="basket"  viewBox="0 0 28 23.69">
        <path d="M25.21,20a2.15,2.15,0,1,1-1.52-.63,2.08,2.08,0,0,1,1.52.63M10.14,20a2.15,2.15,0,0,1-1.52,3.68A2.15,2.15,0,1,1,10.14,20M28,3.23v8.61a1.07,1.07,0,0,1-.27.72,1.06,1.06,0,0,1-.69.36L9.47,15c0,.08,0,.2.08.36s.07.31.1.45a1.83,1.83,0,0,1,0,.37,3.23,3.23,0,0,1-.4,1.08H24.77a1.08,1.08,0,0,1,0,2.15H7.54a1.09,1.09,0,0,1-1.08-1.08,1.82,1.82,0,0,1,.18-.66q.19-.43.5-1L7.49,16l-3-13.85H1.08a1,1,0,0,1-.76-.32A1,1,0,0,1,0,1.08,1,1,0,0,1,.32.32,1,1,0,0,1,1.08,0H5.39a1,1,0,0,1,.48.11A1.1,1.1,0,0,1,6.2.37a1.35,1.35,0,0,1,.22.41,3.21,3.21,0,0,1,.13.44l.09.5c0,.21.06.35.08.43H26.92A1.09,1.09,0,0,1,28,3.23"/>
    </symbol>
    <symbol id="compare"  viewBox="0 0 15.1 11.32">
        <path d="M15.1,7.55V9.17a.26.26,0,0,1-.08.19.26.26,0,0,1-.19.08H3.24v1.62a.27.27,0,0,1-.27.27.32.32,0,0,1-.2-.08L.08,8.54A.25.25,0,0,1,0,8.36a.26.26,0,0,1,.08-.19l2.7-2.7a.27.27,0,0,1,.46.19V7.28H14.83a.27.27,0,0,1,.27.27M15.1,3a.26.26,0,0,1-.08.19l-2.7,2.7a.27.27,0,0,1-.19.08.27.27,0,0,1-.27-.27V4H.27A.26.26,0,0,1,.08,4,.26.26,0,0,1,0,3.77V2.16A.26.26,0,0,1,.08,2a.26.26,0,0,1,.19-.08H11.86V.27a.26.26,0,0,1,.07-.19A.27.27,0,0,1,12.13,0a.32.32,0,0,1,.2.09L15,2.77A.26.26,0,0,1,15.1,3"/>
    </symbol>
    <symbol id="icon_drum"  viewBox="0 0 31.56 30.13">
        <path d="M31.56,1.5V0H17.22V1.5h.53V4.78H13.81V1.5h.53V0H0V1.5H.53V9.15H0v1.5H14.34V9.15h-.53V6.63h1.41v13a1.5,1.5,0,0,0-.54,1.2,1.7,1.7,0,0,0,0,.24l-5.52,7H8.7l-1.58,2H9.49l1.58-2h-.52l4.74-6a.9.9,0,0,0,.5.16.92.92,0,0,0,.58-.22l4.78,6.08h-.58l1.58,2h2.37l-1.58-2H22.5L16.86,21s0-.06,0-.1a1.54,1.54,0,0,0-.47-1.14V6.63h1.34V9.15h-.53v1.5H31.56V9.15H31V1.5Z"/>
    </symbol>
    <symbol id="entry"  viewBox="0 0 17.47 14.56">
        <path d="M17.47,3.28v8a3.28,3.28,0,0,1-3.28,3.28H10.56a.35.35,0,0,1-.26-.11.35.35,0,0,1-.11-.26s0-.11,0-.23,0-.22,0-.3a2.09,2.09,0,0,1,0-.27.37.37,0,0,1,.11-.22.34.34,0,0,1,.23-.07h3.64A1.82,1.82,0,0,0,16,11.28v-8A1.75,1.75,0,0,0,15.48,2a1.76,1.76,0,0,0-1.29-.53H10.52l-.13,0-.09-.06a.22.22,0,0,1-.08-.1.46.46,0,0,1,0-.16s0-.11,0-.23,0-.22,0-.3a2.16,2.16,0,0,1,0-.27.38.38,0,0,1,.11-.22A.35.35,0,0,1,10.56,0h3.64a3.16,3.16,0,0,1,2.31,1,3.16,3.16,0,0,1,1,2.32m-4,4a.7.7,0,0,1-.22.51L7.06,14a.71.71,0,0,1-1,0,.69.69,0,0,1-.22-.51V10.19H.73A.7.7,0,0,1,.22,10,.7.7,0,0,1,0,9.46V5.1a.7.7,0,0,1,.22-.51.71.71,0,0,1,.51-.22h5.1V1.09A.69.69,0,0,1,6,.58a.71.71,0,0,1,1,0l6.19,6.19A.7.7,0,0,1,13.47,7.28Z"/>
    </symbol>
    <symbol id="favourites"  viewBox="0 0 16.99 14.56">
        <path d="M8.49,14.56a.57.57,0,0,1-.42-.17L2.16,8.68a2.89,2.89,0,0,1-.26-.25q-.17-.17-.53-.62a8.1,8.1,0,0,1-.64-.93A5.73,5.73,0,0,1,.22,5.75,4.14,4.14,0,0,1,0,4.44,4.35,4.35,0,0,1,1.2,1.17,4.57,4.57,0,0,1,4.53,0a3.75,3.75,0,0,1,1.2.2A4.78,4.78,0,0,1,6.87.75q.53.34.91.65A9,9,0,0,1,8.49,2a8.84,8.84,0,0,1,.72-.64q.38-.3.91-.65A4.78,4.78,0,0,1,11.26.2a3.75,3.75,0,0,1,1.2-.2,4.57,4.57,0,0,1,3.33,1.17A4.35,4.35,0,0,1,17,4.44,6.2,6.2,0,0,1,14.82,8.7l-5.9,5.69A.57.57,0,0,1,8.49,14.56Z"/>
    </symbol>
    <symbol id="fb"  viewBox="0 0 9.94 21.33">
        <path d="M6.62,7H9.94l-.39,3.68H6.62V21.33H2.2V10.67H0V7H2.2V4.78A5.09,5.09,0,0,1,3.31,1.21,4.79,4.79,0,0,1,7,0H9.92V3.68H8.08a3.1,3.1,0,0,0-.81.08.72.72,0,0,0-.44.3,1.27,1.27,0,0,0-.17.45,4,4,0,0,0,0,.64Z"/>
    </symbol>
    <symbol id="icon_hammer"  viewBox="0 0 33.13 33.12">
        <path d="M33.13,28.63a2.35,2.35,0,0,1-.71,1.72l-2,2.07a2.45,2.45,0,0,1-1.74.71,2.34,2.34,0,0,1-1.72-.71l-6.95-7a2.28,2.28,0,0,1-.73-1.72,2.55,2.55,0,0,1,.82-1.84L15.16,17,12.74,19.4a.92.92,0,0,1-1.3,0l.24.23.24.25a2,2,0,0,0,.19.22,1,1,0,0,1,.19.26l.11.26a1.29,1.29,0,0,1,.11.32,2,2,0,0,1,0,.35,1.85,1.85,0,0,1-.54,1.3l-.32.35-.36.39-.35.32a2.29,2.29,0,0,1-.42.3,3.51,3.51,0,0,1-.42.17,1.47,1.47,0,0,1-.5.09,1.77,1.77,0,0,1-1.3-.54L.54,15.84A1.76,1.76,0,0,1,0,14.54,1.51,1.51,0,0,1,.08,14a3.64,3.64,0,0,1,.17-.42,2.33,2.33,0,0,1,.3-.42c.14-.17.25-.28.32-.35l.39-.36.35-.32a1.85,1.85,0,0,1,1.3-.54,1.9,1.9,0,0,1,.35,0,1.41,1.41,0,0,1,.31.11l.26.11a.94.94,0,0,1,.26.19l.22.19a2.17,2.17,0,0,1,.25.24l.23.24a.93.93,0,0,1,0-1.3l6.66-6.66a.92.92,0,0,1,1.3,0l-.24-.23a2.64,2.64,0,0,1-.24-.25,2.26,2.26,0,0,0-.19-.22,1,1,0,0,1-.19-.26l-.11-.26a1.32,1.32,0,0,1-.11-.32,2,2,0,0,1,0-.34,1.85,1.85,0,0,1,.54-1.3l.32-.35.36-.39L13.2.56a2.26,2.26,0,0,1,.42-.3A3.51,3.51,0,0,1,14,.09a1.47,1.47,0,0,1,.5-.09,1.77,1.77,0,0,1,1.3.54l7.81,7.81a1.77,1.77,0,0,1,.54,1.3,1.52,1.52,0,0,1-.09.5,3.69,3.69,0,0,1-.17.42,2.33,2.33,0,0,1-.3.42l-.32.35-.39.36-.34.32a1.89,1.89,0,0,1-1.65.51,1.4,1.4,0,0,1-.32-.11l-.26-.11a.94.94,0,0,1-.26-.19l-.22-.19a2.17,2.17,0,0,1-.25-.24l-.23-.24a.93.93,0,0,1,0,1.3L17,15.16l4.9,4.9a2.55,2.55,0,0,1,1.84-.82,2.45,2.45,0,0,1,1.74.71l6.95,6.95a2.45,2.45,0,0,1,.71,1.74"/>
    </symbol>
    <symbol id="hide-menu"  viewBox="0 0 10.29 8.57">
        <path d="M10.29.43v.86a.41.41,0,0,1-.13.3.41.41,0,0,1-.3.13H.43a.41.41,0,0,1-.3-.13A.41.41,0,0,1,0,1.29V.43A.41.41,0,0,1,.13.13.41.41,0,0,1,.43,0H9.86a.41.41,0,0,1,.3.13A.41.41,0,0,1,10.29.43Zm0,3.43v.86a.43.43,0,0,1-.43.43H.43A.41.41,0,0,1,.13,5,.41.41,0,0,1,0,4.71V3.86a.41.41,0,0,1,.13-.3.41.41,0,0,1,.3-.13H9.86a.43.43,0,0,1,.43.43Zm0,3.43v.86a.43.43,0,0,1-.43.43H.43a.41.41,0,0,1-.3-.13A.41.41,0,0,1,0,8.14V7.29A.41.41,0,0,1,.13,7a.41.41,0,0,1,.3-.13H9.86a.43.43,0,0,1,.43.43Z"/>
    </symbol>
    <symbol id="icon_kard"  viewBox="0 0 36.78 29.42">
        <path d="M12.26,22.07h7.35v2.45H12.26Zm-7.35,0h4.9v2.45H4.9ZM33.71,27a.62.62,0,0,0,.61-.61V14.71H2.45V26.36a.62.62,0,0,0,.61.61ZM3.07,2.45a.62.62,0,0,0-.61.61V7.36H34.33V3.06a.62.62,0,0,0-.61-.61ZM33.71,0a3,3,0,0,1,2.16.9,3,3,0,0,1,.9,2.17V26.36a3.07,3.07,0,0,1-3.06,3.06H3.07a3,3,0,0,1-2.16-.9A3,3,0,0,1,0,26.36V3.06A3,3,0,0,1,.9.9,3,3,0,0,1,3.07,0Z"/>
    </symbol>
    <symbol id="mail"  viewBox="0 0 20.49 16.1">
        <path d="M20.49,5.19v9.08a1.84,1.84,0,0,1-1.83,1.83H1.83a1.76,1.76,0,0,1-1.29-.54A1.76,1.76,0,0,1,0,14.27V5.19a6.1,6.1,0,0,0,1.16,1Q5.29,9,6.84,10.13q.65.48,1.06.75A6.43,6.43,0,0,0,9,11.43a3.31,3.31,0,0,0,1.26.28h0a3.31,3.31,0,0,0,1.26-.28,6.49,6.49,0,0,0,1.08-.55q.41-.27,1.06-.75,1.94-1.41,5.69-3.94a6.39,6.39,0,0,0,1.14-1m0-3.36a3,3,0,0,1-.56,1.73A5.42,5.42,0,0,1,18.53,5L13.18,8.68,12.7,9l-.62.43-.59.37a3.45,3.45,0,0,1-.66.31,1.8,1.8,0,0,1-.57.1h0a1.8,1.8,0,0,1-.57-.1A3.45,3.45,0,0,1,9,9.83l-.59-.37L7.79,9l-.49-.35-3-2.09L2,5A5.66,5.66,0,0,1,.63,3.64,2.67,2.67,0,0,1,0,2.08,2.31,2.31,0,0,1,.48.59,1.63,1.63,0,0,1,1.83,0H18.66a1.76,1.76,0,0,1,1.29.54,1.75,1.75,0,0,1,.54,1.29"/>
    </symbol>
    <symbol id="icon_piano"  viewBox="0 0 31.56 28">
        <path d="M1,18.76V1.13H7V17.84H9.4v9H1Zm10.32-.91h2.32V1.13h4.3V17.84h2.32v9h-9Zm10.86,0h2.42V1.13h6V26.87H22.16ZM0,28H31.56V0H0Z"/>
    </symbol>
    <symbol id="search"  viewBox="0 0 22.76 22.76">
        <path d="M14,14a5.9,5.9,0,0,0,1.8-4.33A5.9,5.9,0,0,0,14,5.3,5.9,5.9,0,0,0,9.63,3.5,5.9,5.9,0,0,0,5.3,5.3,5.91,5.91,0,0,0,3.5,9.63,5.91,5.91,0,0,0,5.3,14a5.9,5.9,0,0,0,4.33,1.8A5.9,5.9,0,0,0,14,14M22.76,21A1.78,1.78,0,0,1,21,22.76a1.62,1.62,0,0,1-1.23-.52l-4.69-4.68a9.37,9.37,0,0,1-5.46,1.69,9.45,9.45,0,0,1-3.74-.76A9.43,9.43,0,0,1,.76,13.37a9.6,9.6,0,0,1,0-7.48A9.43,9.43,0,0,1,5.89.76a9.59,9.59,0,0,1,7.48,0A9.43,9.43,0,0,1,18.5,5.89a9.47,9.47,0,0,1,.76,3.74,9.38,9.38,0,0,1-1.7,5.46l4.69,4.69A1.67,1.67,0,0,1,22.76,21"/>
    </symbol>
    <symbol id="icon_sheet_music"  viewBox="0 0 27 29.59">
        <path d="M11.36,7.41V6.35L25.29,3.58V4.64ZM26.82,20V7.61h0V4.33h0V3.28h0V0l-17,3.38V20.67a6.27,6.27,0,0,0-5.91-.26C.9,21.72-.72,24.7.31,27.06S4.61,30.28,7.63,29s4.47-4,3.73-6.3v-12L25.29,7.91V18a6.27,6.27,0,0,0-5.91-.26c-3,1.31-4.63,4.28-3.61,6.65s4.3,3.22,7.32,1.91,4.47-4,3.74-6.3"/>
    </symbol>
    <symbol id="tel"  viewBox="0 0 19.48 19.49">
        <path d="M19.48,15.39a4.59,4.59,0,0,1-.14,1,5.56,5.56,0,0,1-.29.95,3.71,3.71,0,0,1-1.69,1.47,5.15,5.15,0,0,1-3.3.66,6,6,0,0,1-.8-.17l-.66-.2-.77-.28-.68-.25a12.61,12.61,0,0,1-2.42-1.15,20.61,20.61,0,0,1-3.66-3,20.44,20.44,0,0,1-3-3.66A12.55,12.55,0,0,1,1,8.32c0-.08-.11-.31-.25-.68L.42,6.88c-.05-.14-.12-.36-.2-.66A6.13,6.13,0,0,1,0,5.42a5.19,5.19,0,0,1,.66-3.3A3.71,3.71,0,0,1,2.17.44,5.34,5.34,0,0,1,3.12.15,2.27,2.27,0,0,1,4.39,0q.25.08.73,1.05L6,2.73l.43.74.24.35A3.88,3.88,0,0,1,7,4.3a.83.83,0,0,1-.3,1.09,6.84,6.84,0,0,1-.86.76A8.42,8.42,0,0,0,5,6.88a.73.73,0,0,0-.32.95,2.4,2.4,0,0,0,.12.28c0,.06.1.18.19.33l.16.26A14.45,14.45,0,0,0,7.53,12a14.48,14.48,0,0,0,3.25,2.41l.26.16.33.19.28.12a.73.73,0,0,0,.95-.32,8.32,8.32,0,0,0,.73-.86,6.68,6.68,0,0,1,.76-.86.83.83,0,0,1,1.09-.3,3.81,3.81,0,0,1,.49.3L16,13l.74.43.88.48.75.42q1,.48,1.05.73a.79.79,0,0,1,0,.29"/>
    </symbol>
    <symbol id="icon_trump"  viewBox="0 0 31.56 19">
        <path d="M20.39,15.92a2.86,2.86,0,0,1-1.56.54c-.45,0-10.47,0-10.94,0a3,3,0,0,1-2.36-1.6c-.58-1.19-.68-2.87,0-3.72A6.87,6.87,0,0,1,7.28,9.71l11.88-.05s2.09.85,2.39,2.56a3.94,3.94,0,0,1-1.16,3.7M29.17,2.07c-1.94,1.47-7,3.13-8.73,3.49-.76.16-2.12.37-3.66.57V5.3h.61V4.44h-2V5.3H16v.92l-1.82.2V5.3h.61V4.44h-2V5.3h.61V6.49c-.64.05-1.26.1-1.82.13V5.3h.61V4.44H10V5.3h.61V6.65c-2.92.1-8.48.26-9,.27V6.51A.59.59,0,0,0,1,5.92H.58A.59.59,0,0,0,0,6.51V8.66a.59.59,0,0,0,.58.59H1a.59.59,0,0,0,.58-.59v-.4h3s-.7,1-1.46,2.22-.7,4,.23,5.74a5.59,5.59,0,0,0,4.2,2.66c1.11.05,4.83.08,6.67.1s5.28,0,6.62-.54a5.53,5.53,0,0,0,3-3.85,12.68,12.68,0,0,0-.35-4,23.62,23.62,0,0,1,3.95,1.6,18.93,18.93,0,0,1,4.05,3.15V0a14.59,14.59,0,0,1-2.39,2.07"/>
    </symbol>
    <symbol id="tw"  viewBox="0 0 20.4 16.57">
        <path d="M20.4,2a8.76,8.76,0,0,1-2.1,2.16c0,.12,0,.3,0,.54A11.87,11.87,0,0,1,17.82,8a12.16,12.16,0,0,1-1.49,3.22A12.64,12.64,0,0,1,13.94,14a10.65,10.65,0,0,1-3.34,1.89,12.18,12.18,0,0,1-4.18.71A11.61,11.61,0,0,1,0,14.69a9.09,9.09,0,0,0,1,.05A8.19,8.19,0,0,0,6.2,13a4.19,4.19,0,0,1-3.91-2.9,5.17,5.17,0,0,0,.79.06A4.36,4.36,0,0,0,4.18,10a4.11,4.11,0,0,1-2.4-1.44,4,4,0,0,1-1-2.66V5.83a4.18,4.18,0,0,0,1.89.53A4.18,4.18,0,0,1,1.36,4.87a4.08,4.08,0,0,1-.5-2A4.11,4.11,0,0,1,1.42.76,11.81,11.81,0,0,0,5.24,3.85,11.63,11.63,0,0,0,10,5.14a4.6,4.6,0,0,1-.1-1,4,4,0,0,1,1.22-3,4.19,4.19,0,0,1,6,.1,8.22,8.22,0,0,0,2.65-1A4.07,4.07,0,0,1,18,2.61,8.31,8.31,0,0,0,20.4,2"/>
    </symbol>
    <symbol id="icon_violin"  viewBox="0 0 35.44 37.15">
        <path d="M16.8,25c-.31.56-2.43,2.76-2.69,3.51s0,1,.19,1.11a.49.49,0,0,0,.45,0s0-.49.36-.36.46.25.43.55-.79.56-1.29.44a1.07,1.07,0,0,1-.88-1.07,3.84,3.84,0,0,1,.85-2.12,23.56,23.56,0,0,0,2-2.28c.14-.35.14-.51,0-.66A.64.64,0,0,0,15.8,24s-.16.27-.4.23-.4-.52-.2-.63,1-.36,1.29-.07A1.24,1.24,0,0,1,16.8,25m-3.46-2.85c-.11.2-.59,0-.63-.19s.22-.4.22-.4a.64.64,0,0,0-.15-.43c-.15-.14-.32-.14-.66,0a23.86,23.86,0,0,0-2.24,2.06,3.84,3.84,0,0,1-2.11.89,1.07,1.07,0,0,1-1.09-.86c-.13-.5.12-1.27.42-1.3s.43.1.56.42-.36.37-.36.37a.5.5,0,0,0,.06.45c.15.22.37.44,1.11.16s2.91-2.43,3.46-2.75a1.24,1.24,0,0,1,1.45.29c.3.3.07,1.09,0,1.29M34.91,1.06s.78-.61.45-1-1,.42-1,.42S34,.07,33.69.21s0,.6,0,.6l0,.34h-.45l-.08.56-.46.41-.35-.33.11-.12A.31.31,0,1,0,32,1.23l-.53.56a.31.31,0,1,0,.45.43L32,2.1l.32.31-.85.75-.24-.23.11-.12a.31.31,0,1,0-.45-.43l-.53.56a.31.31,0,0,0,.45.43l.11-.12.21.2-1.1,1-.14.85s-6.93,7.1-7.36,7.48a2.27,2.27,0,0,1-2.06.46,27.68,27.68,0,0,0-4.14-.55,5.35,5.35,0,0,0-3.6,2.12c-.49.67-1.32,2.17-1.32,2.17a2,2,0,0,1,.54.81c.11.43,0,1.31-1.28,2.39a5.05,5.05,0,0,1-3.17,1.25c-.44-.05-.86-1-.86-1l-3.38,2A7.7,7.7,0,0,0,.6,25.4a6.14,6.14,0,0,0-.39,4.14A22.91,22.91,0,0,0,3.1,33.67a.52.52,0,0,0,0,.65c.28.33.72.07.72.07A8.47,8.47,0,0,0,7.5,36.67a5.4,5.4,0,0,0,5.08-.31,10.86,10.86,0,0,0,3-3.22,28.17,28.17,0,0,0,1.51-3s-.26,0-.82-.48-.07-2.27.93-3.59a2.73,2.73,0,0,1,2.5-1.37,1.11,1.11,0,0,1,.77.53A22.31,22.31,0,0,0,23,23.36c1.22-1.09,1.39-3.82,1.23-4.71s-.7-2.28-.84-2.9a3,3,0,0,1,.4-2c.27-.33,7.08-8,7.08-8l.8-.22.76-1.07.2.19-.11.12a.31.31,0,1,0,.45.43l.53-.56A.31.31,0,0,0,33,4.26l-.11.12-.24-.23.64-.89.28.27-.11.12a.31.31,0,1,0,.45.43l.53-.56A.31.31,0,1,0,34,3.08l-.11.12-.33-.32L34,2.25l.48-.06-.07-.46.28,0s.25.28.5.06-.31-.74-.31-.74"/>
    </symbol>
    <symbol id="vk"  viewBox="0 0 24.86 14.18">
        <path d="M24.83,1q.3.83-1.94,3.81L22,5.93a9.76,9.76,0,0,0-1.17,1.69,1,1,0,0,0,.18,1,14.92,14.92,0,0,0,1,1.06h0l0,0a12.9,12.9,0,0,1,2.47,2.86l.08.16a1.59,1.59,0,0,1,.09.34,1,1,0,0,1,0,.44,1,1,0,0,1-1.09.52l-3.31.05a1.47,1.47,0,0,1-.72-.06,3.15,3.15,0,0,1-.67-.28l-.26-.15a6.09,6.09,0,0,1-.91-.83q-.52-.56-.89-1a4.27,4.27,0,0,0-.79-.75.82.82,0,0,0-.73-.2l-.1,0a1.12,1.12,0,0,0-.22.19,1.62,1.62,0,0,0-.28.38,2.58,2.58,0,0,0-.22.67,4.18,4.18,0,0,0-.08,1,1.28,1.28,0,0,1,0,.36.91.91,0,0,1-.1.24l-.05.06a1,1,0,0,1-.69.29H12.17a5.92,5.92,0,0,1-1.89-.21,7.2,7.2,0,0,1-1.7-.69,15.4,15.4,0,0,1-1.33-.85,7.68,7.68,0,0,1-.91-.75L6,11.3l-.36-.39q-.23-.26-.93-1.18t-1.37-2q-.67-1-1.58-2.73T.08,1.53A.72.72,0,0,1,0,1L.09.9A.9.9,0,0,1,.83.65l3.55,0a1.42,1.42,0,0,1,.3.08.94.94,0,0,1,.21.11l.06,0a.84.84,0,0,1,.31.41q.26.65.6,1.34t.53,1.06L6.59,4a15.23,15.23,0,0,0,.72,1.35,6.58,6.58,0,0,0,.63.89,3.06,3.06,0,0,0,.54.5.73.73,0,0,0,.79.11.74.74,0,0,0,.22-.35,2.08,2.08,0,0,0,.17-.61q.06-.38.12-1a10.08,10.08,0,0,0,0-1.62,6,6,0,0,0-.12-.94,2.52,2.52,0,0,0-.18-.6l-.08-.15A1.59,1.59,0,0,0,8.31,1C8.2,1,8.22.89,8.38.7A1.75,1.75,0,0,1,8.87.31,8.5,8.5,0,0,1,12,0a8.59,8.59,0,0,1,1.75.17,1.49,1.49,0,0,1,.43.17.69.69,0,0,1,.27.31,2,2,0,0,1,.14.41,7,7,0,0,1,0,1.3q0,.34,0,.91,0,.81,0,1.61c0,.27,0,.48,0,.62s0,.32,0,.52a1.41,1.41,0,0,0,.15.51.85.85,0,0,0,.29.32l.22.05q.12,0,.34-.14A4.83,4.83,0,0,0,16,6.32a6.49,6.49,0,0,0,.67-.87q.4-.59.88-1.39A21.12,21.12,0,0,0,19,1.15a.89.89,0,0,1,.13-.23.52.52,0,0,1,.14-.14l.05,0,.07,0,.17,0a1.11,1.11,0,0,1,.26,0l3.73,0a2,2,0,0,1,.83,0,.74.74,0,0,1,.4.22Z"/>
    </symbol>
    <symbol id="main_logo"  viewBox="0 0 187 75.46">
        <path d="M30.71 10.51c-3.9 0-5.86 3.61-5.86 7.62s2.11 7.4 5.83 7.4 5.86-3.45 5.86-7.59c0-3.63-1.9-7.43-5.83-7.43zM46.79 10.56a9.73 9.73 0 0 0-2.33.22v6.67h2.41C49.4 17.45 51 16.07 51 14c0-2.38-1.71-3.41-4.21-3.44z"/><path d="M102.88 0H0v73.51s14.75.86 23.34 0 11.43-13 19.78-20.64C62 35.68 74.93 38.26 90.84 34s12.04-34 12.04-34zM20 10.86h-7.44v6.08h6.92v2h-6.92v8.27H10.2V8.88H20zm10.55 16.6c-4.83 0-8.22-3.74-8.22-9.27 0-5.8 3.61-9.6 8.49-9.6S39 12.41 39 17.83c0 6.3-3.79 9.63-8.45 9.63zm21-.3a23.58 23.58 0 0 1-1.22-4.37c-.54-2.52-1.52-3.47-3.66-3.55h-2.21v7.92H42.1v-18a24.58 24.58 0 0 1 4.53-.38c2.52 0 4.15.46 5.29 1.49a4.55 4.55 0 0 1 1.44 3.47 4.8 4.8 0 0 1-3.44 4.66v.08c1.41.49 2.25 1.79 2.68 3.69a29.1 29.1 0 0 0 1.41 5zm16.83-16.27H62.8v16.27h-2.39V10.89h-5.56v-2h13.53zM80.7 27.16H70.42V8.88h9.87v2h-7.51v5.78h7.11v2h-7.11v6.59h7.92zM84.92 42.78a26.12 26.12 0 0 0-4.33.34v17.27h2.24v-7a7.76 7.76 0 0 0 1.82.16A7.24 7.24 0 0 0 90 51.63a5.14 5.14 0 0 0 1.35-3.74 4.7 4.7 0 0 0-1.53-3.66 7.19 7.19 0 0 0-4.9-1.45zm-.2 8.95a7.61 7.61 0 0 1-1.87-.18v-6.8a9.54 9.54 0 0 1 2.15-.18c2.46 0 4.1 1 4.1 3.42s-1.66 3.74-4.38 3.74zM94.39 42.91h2.26V60.4h-2.26zM105.21 42.91L99.27 60.4h2.33l1.82-5.5h6.24l1.87 5.5h2.41l-6-17.49zm-1.32 10.27l1.71-5.06c.34-1.07.62-2.17.88-3.17h.05c.26 1 .52 2 .91 3.19l1.71 5zM127.47 50.25c0 2.73 0 4.85.26 7.19a49.64 49.64 0 0 0-3.14-5.68l-5.61-8.85h-2.46V60.4h2.13v-7.49c0-2.91-.05-5-.18-7.22h.08a55.51 55.51 0 0 0 3.27 5.84l5.55 8.87h2.28V42.91h-2.13zM140.63 42.61c-4.67 0-8.12 3.64-8.12 9.19 0 5.29 3.24 8.87 7.86 8.87 4.46 0 8.12-3.21 8.12-9.21 0-5.19-3.19-8.85-7.86-8.85zm-.13 16.23c-3.58 0-5.58-3.34-5.58-7.08 0-3.84 1.85-7.29 5.61-7.29s5.58 3.63 5.58 7.11c0 3.96-2.03 7.26-5.61 7.26zM49.06 66.93l-1 2.57c-.23.62-.56 1.56-.69 2-.14-.46-.39-1.18-.54-1.62l-1.07-3h-1.32l-.44 5.9h1l.27-2.78c0-.65.1-1.42.1-2.12.14.59.4 1.44.58 2l1 2.91h.78l1.13-3c.33-.91.49-1.37.65-1.91 0 .72.11 1.48.11 2.11l.18 2.83h1l-.41-5.9zM54.54 70.34c-.15.43-.27.88-.38 1.23-.1-.36-.25-.82-.38-1.21l-1.29-3.48h-1.16l2.18 5.43a.92.92 0 0 1 .07.28.75.75 0 0 1-.09.25 3.26 3.26 0 0 1-.9 1.2 2.85 2.85 0 0 1-.94.52l.27.9a2.91 2.91 0 0 0 1.31-.69c.71-.63 1.23-1.69 2-3.69l1.61-4.2h-1.13zM60.24 69.61a1.5 1.5 0 0 0 1.33-1.34c0-1.15-1.1-1.55-2-1.55a3.75 3.75 0 0 0-2 .54l.27.66a2.84 2.84 0 0 1 1.42-.42c.67 0 1.15.26 1.15.85s-.61 1-1.51 1h-.51v.68H59c.89 0 1.72.21 1.72 1 0 .57-.56 1-1.45 1a3.4 3.4 0 0 1-1.56-.4l-.28.72a4 4 0 0 0 1.91.48c1.25 0 2.55-.47 2.55-1.75a1.57 1.57 0 0 0-1.65-1.47zM65.18 68.78a5 5 0 0 0-1 .07v-2h-1v5.85a14.8 14.8 0 0 0 1.58.09 3.72 3.72 0 0 0 2.38-.68 1.67 1.67 0 0 0 .61-1.36c-.02-1.45-1.3-1.97-2.57-1.97zM64.92 72a5.85 5.85 0 0 1-.74 0v-2.44a4.81 4.81 0 0 1 .82-.06c.81 0 1.66.32 1.66 1.24S65.74 72 64.92 72zM68.43 66.88h1.06v5.9h-1.06zM73.51 69.55l2.57-2.67h-1.3l-2.22 2.56h-.26v-2.56h-1.06v5.9h1.06v-2.6h.15a1.91 1.91 0 0 1 2 1.39 7.73 7.73 0 0 0 .55 1.21h1.14a12.61 12.61 0 0 1-.63-1.44c-.51-1.06-1-1.69-2-1.79zM81.34 69.18c0-1.18-.44-2.41-2.24-2.41a3.65 3.65 0 0 0-1.94.52l.24.71a2.93 2.93 0 0 1 1.54-.46 1.22 1.22 0 0 1 1.34 1.36v.1c-2.28 0-3.55.79-3.5 2.19v.13a1.68 1.68 0 0 0 1.8 1.56 2.2 2.2 0 0 0 1.8-.88l.08.77h1a8.32 8.32 0 0 1-.1-1.41zm-1.05 1.58a1.13 1.13 0 0 1-.06.34 1.47 1.47 0 0 1-1.43 1 1 1 0 0 1-1-1c0-1.15 1.33-1.33 2.5-1.33zM83.46 69.21c0 1.32-.06 2.15-.61 2.55a1.34 1.34 0 0 1-.58.24l.13.88a1.72 1.72 0 0 0 1.17-.37c.77-.5.93-1.6.93-3.26v-1.53h2v5.06h1.06v-5.9h-4.1zM91.35 68.79a5.94 5.94 0 0 0-1 .06v-2h-1v5.85a14.81 14.81 0 0 0 1.58.09 4.1 4.1 0 0 0 2.56-.68 1.67 1.67 0 0 0 .62-1.35c-.03-1.56-1.43-1.97-2.76-1.97zM91.14 72a6.05 6.05 0 0 1-.79 0v-2.44a5 5 0 0 1 .77-.06c.79 0 1.86.25 1.86 1.24S91.94 72 91.14 72zM99.21 69.25h-2.8v-2.37h-1.06v5.9h1.06v-2.67h2.8v2.67h1.06v-5.9h-1.06v2.37zM107.31 66.88h1.06v5.9h-1.06zM104.06 68.78a5 5 0 0 0-1 .07v-2h-1v5.85a14.81 14.81 0 0 0 1.58.09 3.72 3.72 0 0 0 2.38-.68 1.67 1.67 0 0 0 .61-1.36c-.02-1.45-1.3-1.97-2.57-1.97zM103.8 72a5.85 5.85 0 0 1-.74 0v-2.44a4.81 4.81 0 0 1 .79-.06c.81 0 1.66.32 1.66 1.24S104.62 72 103.8 72zM112.39 66.68c-1.76 0-2.76 1.4-2.76 3.18a2.74 2.74 0 0 0 2.9 3 4.78 4.78 0 0 0 2-.37l-.18-.77a3.89 3.89 0 0 1-1.63.3h-.23a1.89 1.89 0 0 1-1.77-2l4.11-.06a4 4 0 0 0 0-.5v-.24a2.5 2.5 0 0 0-2.44-2.54zm1.47 2.57h-3.14a1.78 1.78 0 0 1 1.65-1.74h.18a1.53 1.53 0 0 1 1.31 1.74zM120.68 69.91c-.39.69-.6 1.1-1 1.82.06-.84.06-1.42.06-2.36v-2.49h-1v5.9H120c.63-1.08 1.28-2.17 1.84-3.08.37-.6.62-1.07 1-1.83-.07.95-.07 1.41-.07 2.41v2.5h1v-5.9h-1.25zM129.38 69.25h-2.8v-2.37h-1.06v5.9h1.06v-2.67h2.8v2.67h1.06v-5.9h-1.06v2.37zM135 67.62a2.49 2.49 0 0 1 1.24.28l.24-.83a3.59 3.59 0 0 0-1.49-.31h-.31a3 3 0 0 0-2.86 3.13 2.8 2.8 0 0 0 2.94 3 4 4 0 0 0 1.69-.34l-.14-.79A3 3 0 0 1 135 72a2.22 2.22 0 0 1 0-4.43zM137.09 67.73h1.84v5.05h1.06v-5.05h1.84v-.85h-4.74v.85zM145.85 66.74a2.32 2.32 0 0 0-2.09 1.14v-1h-1v8.3h1.06V72a2.07 2.07 0 0 0 1.82.93c1.39 0 2.68-1.05 2.68-3.17.03-1.76-1.04-3.02-2.47-3.02zm-.42 5.32a1.65 1.65 0 0 1-1.61-1.25 2.39 2.39 0 0 1 0-.44v-1a1.86 1.86 0 0 1 1.69-1.77c1.13 0 1.75 1 1.75 2.19-.04 1.34-.7 2.27-1.83 2.27zM152 70.34c-.15.43-.27.88-.38 1.23-.1-.36-.25-.82-.38-1.21L150 66.88h-1.17l2.17 5.43a.92.92 0 0 1 .07.28.75.75 0 0 1-.09.25 3.26 3.26 0 0 1-.9 1.2 2.85 2.85 0 0 1-.94.52l.27.9a2.91 2.91 0 0 0 1.32-.69c.71-.63 1.23-1.69 2-3.69l1.61-4.2h-1.13zM159.87 66.93l-.95 2.57c-.23.62-.56 1.56-.69 2-.14-.46-.39-1.18-.54-1.62l-1.07-3h-1.32l-.3 5.92h1l.15-2.79c0-.65.1-1.42.1-2.12.14.59.4 1.44.58 2l1 2.91h.78l1.13-3c.33-.91.49-1.37.65-1.91 0 .72.11 1.48.11 2.11l.13 2.83h1l-.41-5.9zM165.29 66.68c-1.76 0-2.76 1.4-2.76 3.18a2.74 2.74 0 0 0 2.9 3 4.78 4.78 0 0 0 2-.37l-.18-.77a3.89 3.89 0 0 1-1.63.3h-.23a1.89 1.89 0 0 1-1.77-2l4.11-.06a4 4 0 0 0 0-.5v-.24a2.5 2.5 0 0 0-2.44-2.54zm1.47 2.57h-3.14a1.78 1.78 0 0 1 1.65-1.74h.18a1.53 1.53 0 0 1 1.31 1.74zM172.96 69.25h-2.8v-2.37h-1.06v5.9h1.06v-2.67h2.8v2.67h1.06v-5.9h-1.06v2.37zM174.98 67.73h1.84v5.05h1.06v-5.05h1.84v-.85h-4.74v.85zM185.94 66.88H187v5.9h-1.06zM182.69 68.78a5 5 0 0 0-1 .07v-2h-1v5.85a14.81 14.81 0 0 0 1.58.09 3.72 3.72 0 0 0 2.38-.68 1.67 1.67 0 0 0 .61-1.36c-.02-1.45-1.26-1.97-2.57-1.97zm-.26 3.22a5.85 5.85 0 0 1-.74 0v-2.44a4.81 4.81 0 0 1 .79-.06c.81 0 1.66.32 1.66 1.24s-.89 1.26-1.71 1.26z"/>
    </symbol>
    <symbol id="vk"  viewBox="0 0 24.86 14.18">
        <path d="M24.83,1q.3.83-1.94,3.81L22,5.93a9.76,9.76,0,0,0-1.17,1.69,1,1,0,0,0,.18,1,14.92,14.92,0,0,0,1,1.06h0l0,0a12.9,12.9,0,0,1,2.47,2.86l.08.16a1.59,1.59,0,0,1,.09.34,1,1,0,0,1,0,.44,1,1,0,0,1-1.09.52l-3.31.05a1.47,1.47,0,0,1-.72-.06,3.15,3.15,0,0,1-.67-.28l-.26-.15a6.09,6.09,0,0,1-.91-.83q-.52-.56-.89-1a4.27,4.27,0,0,0-.79-.75.82.82,0,0,0-.73-.2l-.1,0a1.12,1.12,0,0,0-.22.19,1.62,1.62,0,0,0-.28.38,2.58,2.58,0,0,0-.22.67,4.18,4.18,0,0,0-.08,1,1.28,1.28,0,0,1,0,.36.91.91,0,0,1-.1.24l-.05.06a1,1,0,0,1-.69.29H12.17a5.92,5.92,0,0,1-1.89-.21,7.2,7.2,0,0,1-1.7-.69,15.4,15.4,0,0,1-1.33-.85,7.68,7.68,0,0,1-.91-.75L6,11.3l-.36-.39q-.23-.26-.93-1.18t-1.37-2q-.67-1-1.58-2.73T.08,1.53A.72.72,0,0,1,0,1L.09.9A.9.9,0,0,1,.83.65l3.55,0a1.42,1.42,0,0,1,.3.08.94.94,0,0,1,.21.11l.06,0a.84.84,0,0,1,.31.41q.26.65.6,1.34t.53,1.06L6.59,4a15.23,15.23,0,0,0,.72,1.35,6.58,6.58,0,0,0,.63.89,3.06,3.06,0,0,0,.54.5.73.73,0,0,0,.79.11.74.74,0,0,0,.22-.35,2.08,2.08,0,0,0,.17-.61q.06-.38.12-1a10.08,10.08,0,0,0,0-1.62,6,6,0,0,0-.12-.94,2.52,2.52,0,0,0-.18-.6l-.08-.15A1.59,1.59,0,0,0,8.31,1C8.2,1,8.22.89,8.38.7A1.75,1.75,0,0,1,8.87.31,8.5,8.5,0,0,1,12,0a8.59,8.59,0,0,1,1.75.17,1.49,1.49,0,0,1,.43.17.69.69,0,0,1,.27.31,2,2,0,0,1,.14.41,7,7,0,0,1,0,1.3q0,.34,0,.91,0,.81,0,1.61c0,.27,0,.48,0,.62s0,.32,0,.52a1.41,1.41,0,0,0,.15.51.85.85,0,0,0,.29.32l.22.05q.12,0,.34-.14A4.83,4.83,0,0,0,16,6.32a6.49,6.49,0,0,0,.67-.87q.4-.59.88-1.39A21.12,21.12,0,0,0,19,1.15a.89.89,0,0,1,.13-.23.52.52,0,0,1,.14-.14l.05,0,.07,0,.17,0a1.11,1.11,0,0,1,.26,0l3.73,0a2,2,0,0,1,.83,0,.74.74,0,0,1,.4.22Z"/>
    </symbol>
</svg>